<svg width="25" height="25" viewBox="0 0 25 25" fill="none" xmlns="http://www.w3.org/2000/svg">
<path fill-rule="evenodd" clip-rule="evenodd" d="M5.61455 10.5468L11.5334 4.62793L12.27 5.3645L6.35112 11.2834L5.61455 10.5468Z" fill="#999999"/>
<path fill-rule="evenodd" clip-rule="evenodd" d="M7.57865 12.5109L13.4975 6.59204L14.2341 7.32861L8.31522 13.2475L7.57865 12.5109Z" fill="#999999"/>
<path fill-rule="evenodd" clip-rule="evenodd" d="M11.7526 16.685L17.6715 10.7661L18.408 11.5027L12.4892 17.4215L11.7526 16.685Z" fill="#999999"/>
<path fill-rule="evenodd" clip-rule="evenodd" d="M13.7167 18.6488L19.6356 12.73L20.3721 13.4666L14.4533 19.3854L13.7167 18.6488Z" fill="#999999"/>
<path fill-rule="evenodd" clip-rule="evenodd" d="M13.7168 18.6491C11.6737 20.6922 8.3686 20.6996 6.33462 18.6656C4.30064 16.6316 4.308 13.3265 6.35106 11.2834L5.61449 10.5469C3.16282 12.9985 3.15399 16.9647 5.59477 19.4054C8.03554 21.8462 12.0017 21.8374 14.4533 19.3857L13.7168 18.6491Z" fill="#999999"/>
<path fill-rule="evenodd" clip-rule="evenodd" d="M17.6714 10.766L18.408 11.5026C20.3149 9.59575 20.3217 6.511 18.4234 4.61262C16.525 2.71424 13.4402 2.72111 11.5334 4.62796L12.2699 5.36453C13.7682 3.86629 16.1919 3.86089 17.6835 5.35248C19.1751 6.84406 19.1697 9.2678 17.6714 10.766Z" fill="#999999"/>
<path fill-rule="evenodd" clip-rule="evenodd" d="M7.57884 12.511C6.2168 13.873 6.21189 16.0764 7.56788 17.4324C8.92387 18.7884 11.1273 18.7835 12.4893 17.4215L11.7527 16.6849C10.7993 17.6383 9.25693 17.6417 8.30774 16.6926C7.35855 15.7434 7.36198 14.201 8.31541 13.2476L7.57884 12.511Z" fill="#999999"/>
</svg>
