<svg viewBox="0 0 30 30" width="30" height="30" fill="none" xmlns="http://www.w3.org/2000/svg"><path fill-rule="evenodd" clip-rule="evenodd" d="M26 2H4a2 2 0 00-2 2v14.833l8.655-2.02a11.999 11.999 0 012.726-.313h3.238c.918 0 1.832.105 2.726.314L28 18.834V4a2 2 0 00-2-2zM4 0a4 4 0 00-4 4v22c0 .87.278 1.676.75 2.332v.168h.127c.184.23.393.439.623.623v.127h.168C2.324 29.722 3.13 30 4 30h22c.87 0 1.676-.278 2.332-.75h.168v-.127a4.02 4.02 0 00.623-.623h.127v-.168c.472-.656.75-1.462.75-2.332V4a4 4 0 00-4-4H4zm4.182 10.91a2.727 2.727 0 100-5.455 2.727 2.727 0 000 5.454z" fill="#CDCDCD"/></svg>